<svg aria-hidden="true" style="position:absolute;width:0;height:0;overflow:hidden" xmlns="http://www.w3.org/2000/svg">
  <defs>
    <symbol id="logo" viewBox="0 0 107 32">
      <path fill="#ff6b0a" style="fill:var(--color1, #ff6b0a)" d="M106.667 0v32H59.536V0h47.131zM74.42 8.811v13.927l.001.044a.842.842 0 0 1-.001.087c-.007.08.015.128.107.115a.485.485 0 0 1 .066-.001l.033.001h3.582c.075.001.112.001.129-.017s.016-.051.014-.116l-.001-.078V8.83l-.001-.033a.485.485 0 0 1 .001-.066c.008-.082-.02-.125-.109-.115-.018.002-.036.001-.054.001l-.028-.001h-3.55l-.062-.001c-.065-.001-.098-.001-.114.015s-.016.049-.015.116l.001.064zm19.579-.194h-5.863c-1.954 0-3.908 0-5.86-.002h-.133c-.066-.003-.089.028-.084.089a.486.486 0 0 1 0 .054v3.398c0 .072-.001.107.017.124s.051.017.118.016H85.923c.12 0 .18 0 .209.03s.029.087.029.2v10.335c-.001.059-.001.09.014.106.017.018.052.017.127.017h3.571c.111 0 .166 0 .193-.028s.027-.08.027-.186V12.488l-.001-.059c-.001-.063-.001-.097.015-.114.018-.019.055-.018.133-.018h3.798c.162 0 .162 0 .164-.159V8.759c.001-.072.001-.108-.016-.126s-.053-.017-.123-.016L94 8.618z"/>
      <path fill="#010101" style="fill:var(--color2, #010101)" d="m47.132 0 12.403 16-12.403 16H0V0h47.132zm-26.38 13.662.215.174a.371.371 0 0 0 .106-.107.256.256 0 0 1 .02-.026c.254-.302.507-.606.76-.91.507-.606 1.012-1.212 1.518-1.82.101-.122.097-.177-.018-.276a12.617 12.617 0 0 0-.277-.233c-.803-.657-1.685-1.17-2.684-1.467a9.43 9.43 0 0 0-2.043-.353c-.905-.061-1.802-.031-2.691.174-3.112.716-5.434 3.292-5.707 6.594a7.795 7.795 0 0 0 .225 2.638c.519 1.96 1.645 3.461 3.434 4.45.975.539 2.03.823 3.14.912.94.076 1.87.018 2.788-.189 1.553-.35 2.925-1.056 4.146-2.067a.333.333 0 0 0 .137-.289c-.004-1.572-.004-3.145-.003-4.717v-1.179a.66.66 0 0 0-.003-.062c-.003-.046-.006-.092.006-.134.015-.049-.012-.077-.037-.104-.021-.022-.042-.044-.039-.077.007-.054-.03-.062-.073-.062h-6.556l-.038.001c-.026.001-.052.002-.077-.001-.066-.007-.087.026-.083.087a.657.657 0 0 1 .001.077l-.001.038V17.839l-.001.074c-.001.063-.002.096.014.112s.052.017.125.016H19.772c.072-.001.107-.001.124.016.016.016.015.048.014.11l-.001.078v.679c0 .308 0 .311-.279.445-.818.391-1.681.503-2.573.391-.991-.123-1.784-.591-2.365-1.401-.378-.527-.585-1.122-.662-1.763-.097-.818.002-1.605.373-2.348.448-.892 1.125-1.533 2.098-1.827.682-.207 1.373-.153 2.056-.003.619.135 1.159.437 1.657.816.182.138.359.281.539.427zm18.346-2.98c-1.528-1.39-3.348-2.052-5.229-2.066-.869.002-1.518.072-2.207.251-1.998.521-3.563 1.638-4.602 3.422-1.067 1.83-1.283 3.793-.687 5.812.667 2.257 2.089 3.9 4.29 4.815 1.69.701 3.44.795 5.206.332 2.051-.537 3.624-1.725 4.654-3.578.869-1.562 1.102-3.238.778-4.987-.291-1.572-1.017-2.919-2.203-4zm-8.437 3.528c.666-1.227 1.729-1.815 2.762-1.838 2.094-.005 3.464 1.173 3.837 2.806.226.984.125 1.94-.358 2.834-.57 1.05-1.458 1.661-2.654 1.797-1.156.133-2.165-.194-2.99-1.025a3.579 3.579 0 0 1-.983-1.914c-.172-.928-.066-1.827.386-2.66z"/>
    </symbol>
    <symbol id="javascript" viewBox="0 0 32 32">
      <path fill="#f7df1e" style="fill:var(--color3, #f7df1e)" d="M0 0h32v32H0V0z"/>
      <path style="fill:var(--color4, #000)" d="m8.414 26.741 2.449-1.482c.473.838.902 1.546 1.933 1.546.988 0 1.611-.387 1.611-1.89V14.69h3.007v10.267c0 3.115-1.826 4.532-4.489 4.532-2.406 0-3.802-1.246-4.511-2.75zm10.634-.322 2.448-1.418c.645 1.053 1.482 1.826 2.964 1.826 1.246 0 2.041-.623 2.041-1.482 0-1.031-.816-1.396-2.191-1.997l-.752-.323c-2.17-.923-3.609-2.083-3.609-4.532 0-2.256 1.718-3.974 4.404-3.974 1.912 0 3.287.666 4.274 2.406l-2.341 1.504c-.516-.924-1.074-1.289-1.933-1.289-.881 0-1.439.558-1.439 1.289 0 .902.558 1.268 1.847 1.826l.752.322c2.556 1.096 3.995 2.212 3.995 4.726 0 2.707-2.127 4.189-4.983 4.189-2.792 0-4.597-1.332-5.477-3.072z"/>
    </symbol>
    <symbol id="icon-Logo-portfolio" viewBox="0 0 38 32">
<path fill="#fff" style="fill: var(--color1, #fff)" d="M9.934 0.176c-0.793 1.233-1.908 3.303-1.82 3.391 0.059 0.059 4.139 0.132 9.057 0.147 8.161 0.029 8.939 0.044 8.983 0.264 0.029 0.147-0.235 0.69-0.558 1.233-0.338 0.558-0.675 1.145-0.749 1.306-0.088 0.176-0.235 0.47-0.352 0.661-0.103 0.205-0.161 0.426-0.132 0.484 0.117 0.191 8.426 0.132 8.426-0.059 0-0.088-0.191-0.484-0.44-0.881-0.249-0.382-0.44-0.763-0.44-0.837 0-0.059-0.191-0.396-0.44-0.719-0.235-0.338-0.44-0.661-0.44-0.705 0-0.059-0.279-0.572-0.631-1.145s-0.675-1.145-0.734-1.262c-0.059-0.117-0.235-0.426-0.396-0.661-0.161-0.25-0.367-0.602-0.44-0.807-0.088-0.191-0.25-0.411-0.338-0.47-0.103-0.059-4.286-0.117-9.306-0.117-7.149 0-9.16 0.044-9.248 0.176zM5.398 8.117c-0.117 0.073-0.279 0.264-0.367 0.44-0.073 0.176-0.191 0.426-0.279 0.543-0.411 0.631-1.468 2.466-1.468 2.554 0 0.059-0.117 0.279-0.279 0.499-0.147 0.22-0.646 1.057-1.116 1.864s-0.91 1.482-0.984 1.512c-0.206 0.088-0.132 0.528 0.206 1.057 0.617 0.969 0.69 1.101 0.837 1.424 0.264 0.587 0.895 1.512 1.028 1.512 0.073 0 0.294-0.323 0.499-0.705 0.719-1.365 2.451-4.374 2.906-5.050 0.161-0.22 0.279-0.44 0.279-0.484s0.499-0.91 1.101-1.923 1.101-1.879 1.101-1.938c0-0.044 0.176-0.338 0.382-0.646 0.22-0.308 0.352-0.617 0.294-0.675-0.161-0.147-3.875-0.132-4.139 0.015zM15.203 8.073c-0.661 0.073-0.661 0.073-1.365 1.468-0.176 0.367-0.543 0.983-0.793 1.394-0.264 0.396-0.69 1.13-0.954 1.615s-0.558 0.983-0.646 1.101c-0.088 0.117-0.294 0.455-0.455 0.734-0.514 0.925-0.939 1.673-1.248 2.202-0.528 0.895-0.91 1.556-2.613 4.521l-1.673 2.892 0.264 0.514c0.147 0.279 0.543 0.969 0.881 1.541 0.323 0.558 0.646 1.174 0.705 1.351 0.059 0.191 0.161 0.338 0.22 0.338s0.25 0.279 0.44 0.616c0.176 0.352 0.455 0.822 0.616 1.072 0.147 0.235 0.367 0.631 0.484 0.881 0.117 0.235 0.411 0.719 0.661 1.072l0.455 0.616h18.216l0.25-0.44c0.132-0.235 0.294-0.44 0.367-0.44 0.059 0 0.103-0.073 0.103-0.161s0.22-0.543 0.499-0.998c0.264-0.455 0.675-1.16 0.895-1.556 0.22-0.411 0.851-1.497 1.395-2.422 3.347-5.71 3.288-5.593 3.068-5.739-0.117-0.073-0.396-0.103-0.631-0.059s-1.101 0.073-1.923 0.073h-1.512l-0.91 1.571c-0.499 0.881-1.468 2.525-2.143 3.67s-1.233 2.143-1.233 2.231c0 0.44-0.675 0.484-7.53 0.47-3.802-0.015-6.914-0.029-6.928-0.059-0.382-0.484-2.275-3.905-2.275-4.081 0-0.147 0.294-0.763 0.661-1.35 0.367-0.602 0.66-1.145 0.66-1.189 0-0.059 0.161-0.323 0.367-0.587s0.367-0.528 0.367-0.587c0-0.059 0.338-0.661 0.734-1.351 0.411-0.69 0.734-1.262 0.734-1.292 0-0.059 1.673-2.921 2.275-3.875 0.22-0.338 0.558-0.925 0.749-1.306 0.206-0.382 0.705-1.233 1.101-1.908s0.719-1.262 0.719-1.321c0-0.044 0.176-0.308 0.382-0.587s0.338-0.543 0.294-0.602c-0.117-0.117-2.833-0.132-3.728-0.029z"></path>
<path fill="#fff" style="fill: var(--color1, #fff)" d="M21.501 12.462c-0.205 0.235-0.543 0.749-0.749 1.13-0.484 0.954-0.925 1.747-4.565 8.015-0.323 0.528-0.572 1.028-0.572 1.086s-0.147 0.264-0.308 0.44c-0.396 0.426-0.279 0.866 0.206 0.734 0.176-0.044 2.143-0.088 4.374-0.088h4.037l0.323-0.631c0.411-0.793 0.925-1.688 1.262-2.187 0.455-0.69 0.323-0.749-1.835-0.763-1.923-0.015-1.967-0.015-2.011-0.338-0.029-0.206 0.25-0.837 0.719-1.615 0.426-0.705 0.895-1.527 1.042-1.835l0.264-0.558h6.899c4.33 0 6.899-0.059 6.899-0.147 0-0.161-1.703-3.053-2.026-3.42-0.206-0.235-0.69-0.25-6.899-0.25l-6.679 0.015-0.382 0.411z"></path>
</symbol>
<symbol id="icon-Group-menu" viewBox="0 0 37 32">
<path fill="#fff" style="fill: var(--color1, #fff)" d="M0 2.254c0-1.245 1.009-2.254 2.254-2.254h32.234c1.245 0 2.254 1.009 2.254 2.254s-1.009 2.254-2.254 2.254h-32.234c-1.245 0-2.254-1.009-2.254-2.254z"></path>
<path fill="#fff" style="fill: var(--color1, #fff)" d="M0.111 16.056c0-1.245 1.009-2.253 2.254-2.253h32.123c1.245 0 2.254 1.009 2.254 2.253s-1.009 2.253-2.254 2.253h-32.123c-1.245 0-2.254-1.009-2.254-2.253z"></path>
<path fill="#fff" style="fill: var(--color1, #fff)" d="M0.111 29.746c0-1.245 1.009-2.253 2.254-2.253h32.123c1.245 0 2.254 1.009 2.254 2.253s-1.009 2.253-2.254 2.253h-32.123c-1.245 0-2.254-1.009-2.254-2.253z"></path>
</symbol>
<symbol id="icon-Vector-email" viewBox="0 0 35 32">
<path fill="#fff" style="fill: var(--color1, #fff)" d="M16.101 6.641c2.546 0 4.946 1.129 6.704 2.894v0.005c0-0.847 0.57-1.488 1.358-1.488h0.2c1.243 0 1.493 1.173 1.493 1.543l0.005 13.17c-0.086 0.863 0.891 1.309 1.434 0.755 2.111-2.171 4.64-11.173-1.314-16.384-5.554-4.865-13.007-4.061-16.97-1.33-4.212 2.91-6.904 9.338-4.289 15.38 2.856 6.587 11.021 8.551 15.88 6.592 2.46-0.993 3.594 2.328 1.037 3.415-3.854 1.644-14.593 1.476-19.608-7.21-3.389-5.867-3.209-16.189 5.782-21.536 6.872-4.093 15.939-2.959 21.406 2.748 5.712 5.972 5.382 17.144-0.195 21.488-2.526 1.975-6.276 0.054-6.249-2.824l-0.028-0.938c-1.758 1.742-4.098 2.763-6.645 2.763-5.038 0-9.473-4.436-9.473-9.469 0-5.087 4.435-9.57 9.473-9.57v-0.002zM22.438 15.849c-0.191-3.687-2.927-5.907-6.233-5.907h-0.125c-3.811 0-5.928 3.002-5.928 6.405 0 3.816 2.557 6.226 5.912 6.226 3.745 0 6.204-2.74 6.383-5.982l-0.009-0.742z"></path>
</symbol>
<symbol id="icon-Vector-github" viewBox="0 0 33 32">
<path fill="#fff" style="fill: var(--color1, #fff)" d="M16.437 0c-9.082-0.004-16.437 7.348-16.437 16.422 0 7.176 4.601 13.275 11.009 15.515 0.863 0.217 0.731-0.397 0.731-0.815v-2.846c-4.983 0.584-5.185-2.714-5.519-3.265-0.676-1.153-2.273-1.447-1.796-1.998 1.135-0.584 2.291 0.147 3.632 2.126 0.969 1.436 2.861 1.193 3.819 0.955 0.209-0.863 0.657-1.634 1.274-2.233-5.163-0.925-7.315-4.076-7.315-7.822 0-1.818 0.599-3.489 1.774-4.836-0.749-2.222 0.070-4.124 0.18-4.407 2.134-0.191 4.352 1.528 4.524 1.664 1.212-0.327 2.596-0.499 4.146-0.499 1.557 0 2.945 0.18 4.168 0.51 0.415-0.316 2.471-1.792 4.454-1.612 0.107 0.283 0.907 2.141 0.202 4.333 1.19 1.351 1.796 3.037 1.796 4.858 0 3.753-2.167 6.908-7.345 7.818 0.444 0.436 0.796 0.956 1.036 1.53s0.364 1.19 0.363 1.812v4.131c0.029 0.331 0 0.657 0.551 0.657 6.504-2.192 11.186-8.336 11.186-15.574 0-9.078-7.359-16.426-16.433-16.426z"></path>
</symbol>
<symbol id="icon-Vector-linkedin" viewBox="0 0 32 32">
<path fill="#fff" style="fill: var(--color1, #fff)" d="M16 0c-8.837 0-16 7.163-16 16s7.163 16 16 16c8.837 0 16-7.163 16-16s-7.163-16-16-16zM12.083 22.632h-3.24v-10.427h3.24v10.427zM10.443 10.925c-1.023 0-1.685-0.725-1.685-1.622 0-0.915 0.682-1.618 1.727-1.618s1.685 0.703 1.705 1.618c0 0.897-0.66 1.622-1.747 1.622zM23.917 22.632h-3.24v-5.778c0-1.345-0.47-2.258-1.642-2.258-0.895 0-1.427 0.618-1.662 1.213-0.087 0.212-0.108 0.512-0.108 0.81v6.012h-3.242v-7.1c0-1.302-0.042-2.39-0.085-3.327h2.815l0.148 1.448h0.065c0.427-0.68 1.472-1.683 3.22-1.683 2.132 0 3.73 1.428 3.73 4.498v6.165z"></path>
</symbol>
<symbol id="icon-ITB" viewBox="0 0 23 32">
<path fill="#000" style="fill: var(--color1, #000)" d="M17.843 9.707c-1.63 3.665-4.497 5.948-6.405 5.1s-2.132-4.507-0.502-8.171c1.63-3.665 4.497-5.948 6.405-5.1s2.132 4.507 0.502 8.171z"></path>
<path fill="#000" style="fill: var(--color1, #000)" d="M12.284 9.832c1.815 3.577 1.777 7.242-0.084 8.186s-4.842-1.189-6.657-4.766c-1.815-3.577-1.777-7.242 0.084-8.186s4.842 1.189 6.657 4.766z"></path>
<path fill="#1d1d1d" style="fill: var(--color2, #1d1d1d); stroke: var(--color1, #000)" stroke="#000" stroke-linejoin="miter" stroke-linecap="butt" stroke-miterlimit="4" stroke-width="1.3714" d="M16.82 12.201c2.988 0 5.41 2.422 5.41 5.41v13.704h-16.134c-2.988 0-5.41-2.422-5.41-5.41v-13.704h16.134z"></path>
<path fill="#000" style="fill: var(--color1, #000)" d="M7.912 16.025v11.328h-1.477v-11.328h1.477zM19.384 16.025v1.379h-3.911v9.948h-1.477v-9.948h-3.911v-1.379h9.299z"></path>
</symbol>
  </defs>
</svg>
